<svg width="235" height="235" viewBox="0 0 235 235" fill="none" xmlns="http://www.w3.org/2000/svg">
<circle cx="117.5" cy="117.5" r="117.5" fill="#122AA9" fill-opacity="0.75"/>
<path d="M95.92 88.64H94.96V148.16H104.56V152H70.96V148.16H80.56V88.64H79.6C75.376 88.64 72.464 89.056 70.864 89.888C69.328 90.72 68.272 92.576 67.696 95.456L65.776 104.96H62.032L59.44 88.832C59.44 87.552 59.728 86.624 60.304 86.048C60.88 85.408 61.488 85.056 62.128 84.992C62.832 84.864 63.888 84.8 65.296 84.8H110.224C111.632 84.8 112.656 84.864 113.296 84.992C114 85.056 114.64 85.408 115.216 86.048C115.792 86.624 116.08 87.552 116.08 88.832L113.488 104.96H109.744L107.824 95.456C107.248 92.576 106.16 90.72 104.56 89.888C103.024 89.056 100.144 88.64 95.92 88.64ZM130.491 152V148.16H140.091V128L122.619 88.64H118.011V84.8H137.019L152.187 122.432L160.827 84.8H175.323V88.64H170.811L154.491 128V148.16H164.091V152H130.491Z" fill="white"/>
</svg>
