<svg width="679" height="679" viewBox="0 0 679 679" fill="none" xmlns="http://www.w3.org/2000/svg">
<circle cx="339.5" cy="339.5" r="339.5" fill="#122AA9" fill-opacity="0.75"/>
<path d="M291.715 254.78H289.545V389.32H311.245V398H235.295V389.32H256.995V254.78H254.825C245.277 254.78 238.695 255.72 235.078 257.601C231.606 259.482 229.219 263.677 227.917 270.187L223.577 291.67H215.114L209.255 255.214C209.255 252.321 209.906 250.223 211.208 248.921C212.51 247.474 213.884 246.679 215.331 246.534C216.922 246.245 219.309 246.1 222.492 246.1H324.048C327.231 246.1 329.545 246.245 330.992 246.534C332.583 246.679 334.03 247.474 335.332 248.921C336.634 250.223 337.285 252.321 337.285 255.214L331.426 291.67H322.963L318.623 270.187C317.321 263.677 314.862 259.482 311.245 257.601C307.773 255.72 301.263 254.78 291.715 254.78ZM369.86 398V389.32H391.56V343.75L352.066 254.78H341.65V246.1H384.616L418.902 331.164L438.432 246.1H471.199V254.78H461L424.11 343.75V389.32H445.81V398H369.86Z" fill="white"/>
</svg>
