<svg width="91" height="40" viewBox="0 0 91 40" fill="none" xmlns="http://www.w3.org/2000/svg">
<line x1="40" y1="39.5" x2="91" y2="39.5" stroke="#222689"/>
<path d="M27.5 29.5H91" stroke="#222689"/>
<path d="M8.608 18.216C8 18.216 7.536 18.048 7.216 17.712C6.896 17.376 6.736 16.904 6.736 16.296V4.152H2.488C1.992 4.152 1.608 4.016 1.336 3.744C1.064 3.472 0.928 3.096 0.928 2.616C0.928 2.12 1.064 1.744 1.336 1.488C1.608 1.216 1.992 1.08 2.488 1.08H14.704C15.2 1.08 15.584 1.216 15.856 1.488C16.128 1.744 16.264 2.12 16.264 2.616C16.264 3.096 16.128 3.472 15.856 3.744C15.584 4.016 15.2 4.152 14.704 4.152H10.456V16.296C10.456 16.904 10.296 17.376 9.976 17.712C9.672 18.048 9.216 18.216 8.608 18.216ZM18.9205 22.536C18.5045 22.536 18.1605 22.424 17.8885 22.2C17.6165 21.976 17.4565 21.68 17.4085 21.312C17.3605 20.96 17.4245 20.584 17.6005 20.184L19.2085 16.632V18.12L14.9605 8.376C14.8005 7.96 14.7445 7.576 14.7925 7.224C14.8565 6.856 15.0325 6.568 15.3205 6.36C15.6245 6.136 16.0405 6.024 16.5685 6.024C17.0005 6.024 17.3445 6.128 17.6005 6.336C17.8725 6.528 18.1205 6.904 18.3445 7.464L21.1765 14.664H20.4085L23.3365 7.44C23.5605 6.896 23.8085 6.528 24.0805 6.336C24.3685 6.128 24.7525 6.024 25.2325 6.024C25.6485 6.024 25.9765 6.136 26.2165 6.36C26.4725 6.568 26.6245 6.848 26.6725 7.2C26.7365 7.552 26.6725 7.936 26.4805 8.352L20.8405 21.144C20.6005 21.688 20.3285 22.056 20.0245 22.248C19.7365 22.44 19.3685 22.536 18.9205 22.536ZM30.3254 22.536C29.7334 22.536 29.2774 22.376 28.9574 22.056C28.6534 21.752 28.5014 21.296 28.5014 20.688V7.848C28.5014 7.256 28.6534 6.808 28.9574 6.504C29.2774 6.184 29.7174 6.024 30.2774 6.024C30.8694 6.024 31.3174 6.184 31.6214 6.504C31.9254 6.808 32.0774 7.256 32.0774 7.848V9.48L31.8134 8.544C32.0534 7.776 32.5334 7.16 33.2534 6.696C33.9894 6.216 34.8294 5.976 35.7734 5.976C36.7974 5.976 37.6934 6.224 38.4614 6.72C39.2454 7.216 39.8534 7.92 40.2854 8.832C40.7174 9.744 40.9334 10.832 40.9334 12.096C40.9334 13.36 40.7174 14.456 40.2854 15.384C39.8534 16.312 39.2534 17.024 38.4854 17.52C37.7174 18.016 36.8134 18.264 35.7734 18.264C34.8454 18.264 34.0214 18.04 33.3014 17.592C32.5814 17.128 32.0934 16.528 31.8374 15.792H32.1254V20.688C32.1254 21.296 31.9654 21.752 31.6454 22.056C31.3414 22.376 30.9014 22.536 30.3254 22.536ZM34.6934 15.552C35.2054 15.552 35.6534 15.424 36.0374 15.168C36.4374 14.912 36.7414 14.536 36.9494 14.04C37.1734 13.528 37.2854 12.88 37.2854 12.096C37.2854 10.928 37.0454 10.072 36.5654 9.528C36.0854 8.968 35.4614 8.688 34.6934 8.688C34.1814 8.688 33.7254 8.808 33.3254 9.048C32.9414 9.288 32.6374 9.664 32.4134 10.176C32.1894 10.672 32.0774 11.312 32.0774 12.096C32.0774 13.264 32.3174 14.136 32.7974 14.712C33.2774 15.272 33.9094 15.552 34.6934 15.552ZM44.9738 18.192C44.3818 18.192 43.9258 18.024 43.6058 17.688C43.3018 17.336 43.1498 16.848 43.1498 16.224V8.016C43.1498 7.376 43.3018 6.888 43.6058 6.552C43.9258 6.2 44.3818 6.024 44.9738 6.024C45.5498 6.024 45.9898 6.2 46.2938 6.552C46.6138 6.888 46.7738 7.376 46.7738 8.016V16.224C46.7738 16.848 46.6218 17.336 46.3178 17.688C46.0138 18.024 45.5658 18.192 44.9738 18.192ZM44.9738 4.056C44.3018 4.056 43.7818 3.904 43.4138 3.6C43.0618 3.28 42.8858 2.832 42.8858 2.256C42.8858 1.664 43.0618 1.216 43.4138 0.912C43.7818 0.591999 44.3018 0.431999 44.9738 0.431999C45.6458 0.431999 46.1578 0.591999 46.5098 0.912C46.8618 1.216 47.0378 1.664 47.0378 2.256C47.0378 2.832 46.8618 3.28 46.5098 3.6C46.1578 3.904 45.6458 4.056 44.9738 4.056ZM59.6037 22.536C59.0117 22.536 58.5637 22.376 58.2597 22.056C57.9557 21.752 57.8037 21.296 57.8037 20.688V15.792H58.0677C57.8117 16.528 57.3237 17.128 56.6037 17.592C55.8997 18.04 55.0837 18.264 54.1557 18.264C53.1317 18.264 52.2277 18.016 51.4437 17.52C50.6757 17.024 50.0757 16.312 49.6437 15.384C49.2117 14.456 48.9957 13.36 48.9957 12.096C48.9957 10.832 49.2117 9.744 49.6437 8.832C50.0757 7.92 50.6757 7.216 51.4437 6.72C52.2277 6.224 53.1317 5.976 54.1557 5.976C55.0997 5.976 55.9317 6.216 56.6517 6.696C57.3877 7.16 57.8677 7.776 58.0917 8.544L57.8277 9.48V7.848C57.8277 7.256 57.9797 6.808 58.2837 6.504C58.6037 6.184 59.0517 6.024 59.6277 6.024C60.2037 6.024 60.6437 6.184 60.9477 6.504C61.2677 6.808 61.4277 7.256 61.4277 7.848V20.688C61.4277 21.296 61.2677 21.752 60.9477 22.056C60.6277 22.376 60.1797 22.536 59.6037 22.536ZM55.2357 15.552C55.7637 15.552 56.2197 15.424 56.6037 15.168C56.9877 14.912 57.2917 14.536 57.5157 14.04C57.7397 13.528 57.8517 12.88 57.8517 12.096C57.8517 10.928 57.6117 10.072 57.1317 9.528C56.6517 8.968 56.0197 8.688 55.2357 8.688C54.7237 8.688 54.2677 8.808 53.8677 9.048C53.4837 9.288 53.1797 9.664 52.9557 10.176C52.7477 10.672 52.6437 11.312 52.6437 12.096C52.6437 13.264 52.8837 14.136 53.3637 14.712C53.8437 15.272 54.4677 15.552 55.2357 15.552ZM68.5641 18.264C67.5721 18.264 66.7481 18.08 66.0921 17.712C65.4361 17.344 64.9481 16.792 64.6281 16.056C64.3241 15.304 64.1721 14.376 64.1721 13.272V7.848C64.1721 7.24 64.3241 6.784 64.6281 6.48C64.9481 6.176 65.3961 6.024 65.9721 6.024C66.5481 6.024 66.9961 6.176 67.3161 6.48C67.6361 6.784 67.7961 7.24 67.7961 7.848V13.368C67.7961 14.072 67.9401 14.6 68.2281 14.952C68.5161 15.288 68.9721 15.456 69.5961 15.456C70.2841 15.456 70.8441 15.216 71.2761 14.736C71.7241 14.24 71.9481 13.592 71.9481 12.792V7.848C71.9481 7.24 72.1001 6.784 72.4041 6.48C72.7241 6.176 73.1721 6.024 73.7481 6.024C74.3401 6.024 74.7881 6.176 75.0921 6.48C75.4121 6.784 75.5721 7.24 75.5721 7.848V16.368C75.5721 17.6 74.9881 18.216 73.8201 18.216C73.2441 18.216 72.8041 18.056 72.5001 17.736C72.1961 17.416 72.0441 16.96 72.0441 16.368V14.76L72.4041 15.696C72.0521 16.512 71.5481 17.144 70.8921 17.592C70.2361 18.04 69.4601 18.264 68.5641 18.264ZM84.4964 18.264C83.1044 18.264 81.9044 18.016 80.8964 17.52C79.9044 17.008 79.1364 16.296 78.5924 15.384C78.0644 14.456 77.8004 13.368 77.8004 12.12C77.8004 10.904 78.0564 9.84 78.5684 8.928C79.0804 8 79.7924 7.28 80.7044 6.768C81.6324 6.24 82.6804 5.976 83.8484 5.976C84.6964 5.976 85.4644 6.12 86.1524 6.408C86.8404 6.68 87.4324 7.08 87.9284 7.608C88.4244 8.12 88.8004 8.752 89.0564 9.504C89.3124 10.24 89.4404 11.064 89.4404 11.976C89.4404 12.28 89.3444 12.512 89.1524 12.672C88.9604 12.816 88.6804 12.888 88.3124 12.888H80.7764V11.016H86.8244L86.4404 11.352C86.4404 10.696 86.3444 10.152 86.1524 9.72C85.9604 9.272 85.6804 8.936 85.3124 8.712C84.9604 8.488 84.5204 8.376 83.9924 8.376C83.4004 8.376 82.8964 8.512 82.4804 8.784C82.0644 9.056 81.7444 9.448 81.5204 9.96C81.2964 10.472 81.1844 11.088 81.1844 11.808V12C81.1844 13.216 81.4644 14.112 82.0244 14.688C82.6004 15.264 83.4484 15.552 84.5684 15.552C84.9524 15.552 85.3924 15.504 85.8884 15.408C86.3844 15.312 86.8484 15.16 87.2804 14.952C87.6484 14.776 87.9764 14.72 88.2644 14.784C88.5524 14.832 88.7764 14.96 88.9364 15.168C89.0964 15.376 89.1844 15.616 89.2004 15.888C89.2324 16.16 89.1764 16.432 89.0324 16.704C88.8884 16.96 88.6484 17.176 88.3124 17.352C87.7684 17.656 87.1524 17.88 86.4644 18.024C85.7924 18.184 85.1364 18.264 84.4964 18.264Z" fill="#222689"/>
</svg>